
<global>
ampeg_attack=0.005
ampeg_release=0.3
</global>

<group>
group_label=RR1
seq_length=2
seq_position=1

<region>
hikey=B3
hivel=127
lokey=F#3
lovel=0
offset=9883
pitch_keycenter=A3
sample=Lespaul_Rhythm_Harmonic_MP_A3_RR1.opus
tune=+6
volume=+10.19
</region>

<region>
hikey=A#4
hivel=127
lokey=A4
lovel=0
offset=8203
pitch_keycenter=A4
sample=Lespaul_Rhythm_Harmonic_MP_A4_RR1.opus
tune=-6
volume=+13.38
</region>

<region>
hikey=C5
hivel=127
lokey=B4
lovel=0
offset=9610
pitch_keycenter=B4
sample=Lespaul_Rhythm_Harmonic_MP_B4_RR1.opus
volume=+12.74
</region>

<region>
hikey=C#6
hivel=127
lokey=A#5
lovel=0
offset=7794
pitch_keycenter=B5
sample=Lespaul_Rhythm_Harmonic_MP_B5_RR1.opus
tune=-3
volume=+7.75
</region>

<region>
hivel=127
key=C#5
lovel=0
offset=7747
sample=Lespaul_Rhythm_Harmonic_MP_C#5_RR1.opus
volume=+8.53
</region>

<region>
end=321625
hikey=D#6
hivel=127
lokey=D6
lovel=0
offset=8118
pitch_keycenter=D#6
sample=Lespaul_Rhythm_Harmonic_MP_D#6_RR1.opus
volume=+4.38
</region>

<region>
hikey=F3
hivel=127
lokey=C3
lovel=0
offset=10810
pitch_keycenter=D3
sample=Lespaul_Rhythm_Harmonic_MP_D3_RR1.opus
tune=+6
volume=+5.58
</region>

<region>
hikey=D#4
hivel=127
lokey=C4
lovel=0
offset=6667
pitch_keycenter=D4
sample=Lespaul_Rhythm_Harmonic_MP_D4_RR1.opus
tune=-5
volume=+12.58
</region>

<region>
hikey=D#5
hivel=127
lokey=D5
lovel=0
offset=9615
pitch_keycenter=D5
sample=Lespaul_Rhythm_Harmonic_MP_D5_RR1.opus
tune=-6
volume=+11.18
</region>

<region>
hikey=F4
hivel=127
lokey=E4
lovel=0
offset=8799
pitch_keycenter=E4
sample=Lespaul_Rhythm_Harmonic_MP_E4_RR1.opus
tune=+5
volume=+8.51
</region>

<region>
end=378261
hikey=F5
hivel=127
lokey=E5
lovel=0
offset=9100
pitch_keycenter=E5
sample=Lespaul_Rhythm_Harmonic_MP_E5_RR1.opus
tune=-17
volume=+11.10
</region>

<region>
end=287336
hikey=F#6
hivel=127
lokey=E6
lovel=0
offset=8653
pitch_keycenter=E6
sample=Lespaul_Rhythm_Harmonic_MP_E6_RR1.opus
tune=-26
volume=+7.97
</region>

<region>
hivel=127
key=F#4
lovel=0
offset=10813
sample=Lespaul_Rhythm_Harmonic_MP_F#4_RR1.opus
tune=-106
volume=+7.80
</region>

<region>
end=490290
hivel=127
key=F#5
lovel=0
offset=9541
sample=Lespaul_Rhythm_Harmonic_MP_F#5_RR1.opus
tune=-5
volume=+9.32
</region>

<region>
end=227848
hikey=G#6
hivel=127
lokey=G6
lovel=0
offset=8551
pitch_keycenter=G#6
sample=Lespaul_Rhythm_Harmonic_MP_G#6_RR1.opus
volume=+6.24
</region>

<region>
hikey=G#4
hivel=127
lokey=G4
lovel=0
offset=8356
pitch_keycenter=G4
sample=Lespaul_Rhythm_Harmonic_MP_G4_RR1.opus
tune=+3
volume=+11.95
</region>

<region>
hikey=A5
hivel=127
lokey=G5
lovel=0
offset=9149
pitch_keycenter=G5
sample=Lespaul_Rhythm_Harmonic_MP_G5_RR1.opus
volume=+10.21
</region>
</group>

<group>
group_label=RR2
seq_length=2
seq_position=2

<region>
hikey=B3
hivel=127
lokey=F#3
lovel=0
offset=7530
pitch_keycenter=A3
sample=Lespaul_Rhythm_Harmonic_MP_A3_RR2.opus
tune=+5
volume=+9.69
</region>

<region>
hikey=A#4
hivel=127
lokey=A4
lovel=0
offset=8682
pitch_keycenter=A4
sample=Lespaul_Rhythm_Harmonic_MP_A4_RR2.opus
tune=-7
volume=+13.39
</region>

<region>
hikey=C5
hivel=127
lokey=B4
lovel=0
offset=8337
pitch_keycenter=B4
sample=Lespaul_Rhythm_Harmonic_MP_B4_RR2.opus
tune=+1
volume=+13.67
</region>

<region>
end=276129
hikey=C#6
hivel=127
lokey=A#5
lovel=0
offset=6210
pitch_keycenter=B5
sample=Lespaul_Rhythm_Harmonic_MP_B5_RR2.opus
tune=-3
volume=+9.49
</region>

<region>
end=269341
hivel=127
key=C#5
lovel=0
offset=10708
sample=Lespaul_Rhythm_Harmonic_MP_C#5_RR2.opus
volume=+8.84
</region>

<region>
end=257172
hikey=D#6
hivel=127
lokey=D6
lovel=0
offset=8366
pitch_keycenter=D#6
sample=Lespaul_Rhythm_Harmonic_MP_D#6_RR2.opus
volume=+10.05
</region>

<region>
hikey=F3
hivel=127
lokey=C3
lovel=0
offset=7098
pitch_keycenter=D3
sample=Lespaul_Rhythm_Harmonic_MP_D3_RR2.opus
tune=+6
volume=+3.80
</region>

<region>
hikey=D#4
hivel=127
lokey=C4
lovel=0
offset=7557
pitch_keycenter=D4
sample=Lespaul_Rhythm_Harmonic_MP_D4_RR2.opus
tune=-6
volume=+15.41
</region>

<region>
hikey=D#5
hivel=127
lokey=D5
lovel=0
offset=8874
pitch_keycenter=D5
sample=Lespaul_Rhythm_Harmonic_MP_D5_RR2.opus
tune=-1
volume=+9.27
</region>

<region>
hikey=F4
hivel=127
lokey=E4
lovel=0
offset=10026
pitch_keycenter=E4
sample=Lespaul_Rhythm_Harmonic_MP_E4_RR2.opus
tune=+5
volume=+10.57
</region>

<region>
hikey=F5
hivel=127
lokey=E5
lovel=0
offset=8958
pitch_keycenter=E5
sample=Lespaul_Rhythm_Harmonic_MP_E5_RR2.opus
tune=-3
volume=+10.98
</region>

<region>
hikey=F#6
hivel=127
lokey=E6
lovel=0
offset=9140
pitch_keycenter=E6
sample=Lespaul_Rhythm_Harmonic_MP_E6_RR2.opus
tune=-24
volume=+8.04
</region>

<region>
hivel=127
key=F#4
lovel=0
offset=9599
sample=Lespaul_Rhythm_Harmonic_MP_F#4_RR2.opus
tune=-29
volume=+4.31
</region>

<region>
end=514526
hivel=127
key=F#5
lovel=0
offset=11121
sample=Lespaul_Rhythm_Harmonic_MP_F#5_RR2.opus
tune=-4
volume=+9.80
</region>

<region>
end=177577
hikey=G#6
hivel=127
lokey=G6
lovel=0
offset=8397
pitch_keycenter=G#6
sample=Lespaul_Rhythm_Harmonic_MP_G#6_RR2.opus
volume=+8.25
</region>

<region>
hikey=G#4
hivel=127
lokey=G4
lovel=0
offset=6383
pitch_keycenter=G4
sample=Lespaul_Rhythm_Harmonic_MP_G4_RR2.opus
tune=+3
volume=+9.19
</region>

<region>
hikey=A5
hivel=127
lokey=G5
lovel=0
offset=8630
pitch_keycenter=G5
sample=Lespaul_Rhythm_Harmonic_MP_G5_RR2.opus
volume=+6.88
</region>
</group>